<?xml version="1.0" encoding="utf-8"?>
<!-- Generator: Adobe Illustrator 25.2.1, SVG Export Plug-In . SVG Version: 6.00 Build 0)  -->
<svg version="1.1" id="Layer_1" xmlns="http://www.w3.org/2000/svg" xmlns:xlink="http://www.w3.org/1999/xlink" x="0px" y="0px"
	 viewBox="0 0 2000 2000" style="enable-background:new 0 0 2000 2000;" xml:space="preserve">
<style type="text/css">
	.st0{opacity:0.75;}
</style>
<path class="st0" d="M-3517.6,3879.8l-252-139.4l94.4-97.3l-36.7-158l169.2-18.8c-70.8-190,60.1-224.3,190.3-247
	c102.9-18,206.7-18.3,178.1-171.7c-3-15.4,48.5-39.4,72.3-61.9c109.8-103.2,257-189.1,317.2-316.2
	c60.7-128.2,130.3-177.7,253.6-185.8c53.3-3.5,107.2,0.7,176.8,1.8c-86.8-235.4,56.7-265.3,159.4-327
	c51.6-30.9,114.5-58.8,145-105.8c71.7-110.8,123.9-234,189.6-348.9c57.7-100.7,116.6-200,263.3-189.3c27.1,2,77.2-63.9,85.4-104.9
	c13.9-68.2,2.5-141.5,1.8-215.8c-102.4-74.9-149.5-174.7-100.1-258.3c51.3-86.8,109.7-178.6,188-238
	c110.2-83.6,241.3-139.5,381.5-217.3c28.5,368.4,282.9,82,435.6,196.8c-57.3,40.7-104.6,67.1-142.6,103.3
	c-38.6,36.6-67.7,83.1-100.9,125.2c49.9,26.2,100,73.1,149.7,72.8c51.1-0.3,101.9-46.7,163.1-78.2C-656.2,739.8-512,690.7-425,642.9
	C-202.5,520.7,21.3,413.2,74.7,125.1c54.8-295.8,400.8-330.5,529.4-570.4c57-106.2,184-173.3,249.2-277
	c99.7-159,333.1-154,400.4-347.5c6.3-17.9,77.4-26,112.4-16.4c21.2,5.8,42.1,53.8,43.4,83.8c5.1,114-17.3,213-158.5,231.9
	c-23.9,3.2-44.6,31-66.8,47.4l18.5,42.8c89-32.5,182.1-57.3,265-101.3c33.1-17.6,72.1-91.9,60-115.7
	c-75.5-148.5,33-182.9,127.1-234.7c161.3-89,319.9-182.8,490.5-280.8c70.7,44.2,176.1,14.9,272.7-36.3
	c104.6-55.4,196.4-98.4,258.7,77.1l139.7-174.1l-151.5-61l153.8-150.6l728,402.7c-137.9,31.6-275,88.8-411.4-13
	c-21.3-15.9-90.3-8.8-97.8,6.8c-14.3,29.4-3.7,73.5,4,109.9c4.8,23,23.1,43.2,62,111.5c-154,23.1-282.3,42.5-410.7,61.7
	c-31.2,4.7-70.9-1.7-92.1,15.2c-129,102.8-214.7,0.6-297.5-51.3c-99.7,42.3-197.3,71.6-281.4,122.9
	c-80.1,48.9-184.2,108.4-209.6,185.5c-40.6,123.1-214.9,397.7-341.1,438.6c-49.1,16-101.2,23.2-152.5,31.3
	c-58.7,9.2-130.5-3.6-174.4,26c-99.6,66.6-188.4,115.5-294.3-4C760.6-146.2,556.5-83.1,550.4,127.7c-0.9,30.5-54.4,60.6-85.3,88.9
	c-89.5,81.9-182,160.6-269.4,244.6C79.4,573-33.2,688.7-134.4,789.7c-40.8,73.8-73.7,137.5-110.6,198.6
	c-29.5,48.7-61.7,95.7-96.5,140.7c-57.6,74.6-104.5,176.4-181.2,211.8c-78.1,35.9-242.5,40.9-270.8-3.5
	c-65.1-101.7-146.3-64.3-201.4-50.4c-103.8,26.2-208.7,76.5-291.8,143.2c-35.2,28.2-8.8,125.5-24.7,187.4
	c-12.5,48.2-36.5,105.3-74,133.3c-224.1,166.6-312.7,461.3-569,595.9c-15.2,8-25.1,26-68.8,73.2c167.7-57.3,292.8-98.6,416-144
	c15.3-5.6,21.1-34.8,33.2-51.7c185.9-260.4,369.5-522.4,561.9-778.2c23.5-31.3,94.2-39.3,142.3-37.5c141,4.8,285.2,44.6,421.4,24.5
	c142.3-21,276.7-95.7,415-147C-122.5,999.9-79,927.7,238.6,829.7c31.5-9.8,57-39.4,101.6-71.8L153.1,654.4
	c166.9-88.6,195.6-373.3,471.8-249.2l157.6-206.9c-129.8-123.1-20.9-212.7,16-326.1L940.3-27.3c95.8-138.2,225.6-170.1,389.4-196
	c178.9-28.2,365.2-128.2,502.3-249c61.2-53.9,109.5-114.7,186.2-112.9c156.7,3.6,255.6-58.2,311.5-204.3
	c9.6-25.1,58.7-48.2,90.1-49.5c89.9-3.5,188.6,29.4,268.5,2.2c106.2-36,192.3-128.2,297.2-171.9c91.7-38.2,213.8-17.8,227-164.9
	c0.7-8.4,62.8-17.5,95.6-15.2c41.6,2.8,88,34.4,122.6,23.3c197.1-63.2,251.7,53.4,284.8,208c-129.7,87.4-240.4,262.1-398.8,209.6
	c-294.1-97.5-439.5,95.9-533.8,276.8c-77.8,148.9-189.8,214.5-308.2,290.5c-52.2,33.5-128,30.4-229.5,51.3l82.1-182.5l-436.4,150.6
	c-8.9,28.7-8.7,99.1-41,120.4c-123.1,81.1-255.8,148-386.5,217.1c-97.9,51.8-198.2,99.1-312.6,155.9l-90.4-76.5
	c6.6,100.5,27.2,171.2,11.3,232.4c-20.9,80.6-67.7,217.6-108.3,219.4c-208.9,9.2-309.7,109.4-342.9,304c-4,23.7-29.1,43.3-43.8,65.6
	c-100.8,153-290.7,261-244.5,490.3c3.6,17.8-43.6,56.7-74,68.6c-156.8,61.6-315.8,117.6-474,175.5l-29.9-90.6
	c-186.6,153.4-202.4,152.6-285.5-4.4c-189.8,24-356.4,77.6-451.2,270.4c-37.8,76.6-104.9,173.2-177,192.2
	c-260.7,69.1-275.3,372.4-486.9,480.9c-16.4,8.4-30.6,54-22.6,71.8c53,116.7-19.5,201.7-63,296.7c-37.1,80.9-50.1,230.1-95.6,239
	c-132.6,26.2-37.6-102.7-68.1-155.6c-2.3-4-6.6-6.9-30.6-31.1c-106.2,119.9-298.2,138.6-385.3,334.3l339.6-109.3
	c-73,131.9-116.6,222.2-172.1,304.4c-17.3,25.6-78.5,51.1-99.7,39.7c-99-53.4-134.1,7.8-171.2,78.2
	c-74.6,141.3-147.3,278.8-313.1,345.1c-60.6,24.3-97.9,106.5-145.9,162.3l-560-309.8c33.5-33.8,63.1-91.2,101.2-97.4
	c200.3-33.1,288.8-178.2,368.6-338c7.1-14.3,33.5-19.2,51.1-28.4l41.7,17.1l-91.6,295.4c152.1,27.7,206.7-66.9,262.9-175.6
	c43.8-84.9,113-156.3,162.8-238.7c35-57.9,83.1-126.5,77.8-186c-9.9-110.1,44.5-157,129.1-160.5c223.6-8.9,328.8-173,445.7-321.9
	c18.2-23.1,21.5-87.3,4.4-103.3c-54.8-51.4-211.2,18.9-231.5,97.8c-33.7,131.2-97.3,214.1-253.7,207.1c-64.8-3-158.9,27.2-193,75.4
	c-94.1,132.7-163.6,282.8-231.2,404.9c-41-14.8-99.6-57.6-127.5-42.7c-227.1,121.2-339.3,380.9-579.7,490.2
	C-3509.5,3827.5-3510.8,3859.7-3517.6,3879.8L-3517.6,3879.8z M150.6,5908.8l-392-216.8c38-14.6,106.1-24.5,109.3-44.7
	c33-210.9,189.9-169,328.4-162.8c-37.3-182.6,4-213.1,191.3-153.4c101.7-121,195.7-247.4,307-355.8c32.7-31.9,115-16.9,174.4-16
	c50.9,0.7,109.6,32.3,150.6,15.4c140-57.6,275.5-127.2,408.8-199.4c53.2-28.8,111.8-119.5,141.4-108.7
	c199.9,72.3,254.2-128.4,297.3-204.6c165.8-293.2,410.6-459.8,751.1-588.2l-95.2-101.3l316.7-130.7c-1.5-41.4-19.2-93.3-2-127.7
	c78.3-156.1,166.5-307.3,238.5-437.5c84.9-60.4,153-113.9,225.9-159.5c150.6-94.2,359.9-53.6,484.7-209.2
	c34.1-42.5,70.4-83.3,102.8-127c26.4-35.7,46.8-76.3,73.3-112.1c86.7-117.3,227.7-197.7,237.5-366.5c6.6-113.8,57-122.3,157.8-76.9
	c50,22.6,142.1,5.1,186.6-30.3c37.1-29.5,34.8-111,45.6-170.2c12.3-67.3,2.9-144.7,33.4-200.9c44.4-82.1,119.3-147.1,174.9-224
	c33.1-45.7,89.2-116.1,74.7-147.9c-67.7-148.5,26.7-172.3,152-190.8l-115-131.5c274.5-51.8,572.1-73.7,472.3-491.3
	c90.1-57.9,194-128.3,193.9-283c0-46.4,80.6-91,119.9-139.8c33.2-41.2,60.3-87.5,90.1-131.5L6011,8.1L4895.8,2024.2l-150,30.5
	c27.8,127.3-70.3,160.1-152.4,209.4c-130.3,78.5-309.3,126.3-219.3,350.9c14.8,37.1-22.2,102-47.6,146.8
	c-69.7,123.1-71.4,295.5-245.3,346.5c-12.2,3.6-13.6,37.1-24.3,53.8c-21.1,32.8-39.3,81.3-69.5,91.5c-63,21.3-133.1,22-202.2,31.4
	l13.4-110.4c-25.7,5.2-37.9,4.4-45.6,9.9c-108.5,77.1-270.9,40.9-326.6,246.9c-36.1,133.5-248.1,215.2-370.2,331.8
	c-57.1,54.5-72.3,159.8-133.9,201.2c-117.1,78.7-254,127.9-389.8,192.8l27,174.3c-87.1,43.2-181.7,88.8-274.4,137.5
	c-34.9,18.3-70.2,39.7-98,67.1c-54.5,53.6-96.2,123.5-157.4,166.3c-78.6,54.9-180.1,78.2-255.8,136
	c-100.2,76.4-206.3,159.7-271.4,264.1c-101.4,162.8-277.9,206.5-420.8,234.2c-275.6,53.5-442.9,203.4-574,427.9
	c-37.3,63.9-77.1,104.9-160,34.9C238.1,5707.3,173.7,5747.8,150.6,5908.8z M74.6-3275.5l336,185.9C364.3-3052,274-3005.3,279.5-2978
	c20.7,102.4,61.6,194-93.1,214.6c-13.5,178.2-253.8,162.6-282.6,329.2c-1.2,7.1-27,10-44.1,15.7l-58.4-73.4
	c-105.2,29.3-191.7,74.7-276.9,72.3c-147.3-4.2-293.7-38-454.5-61.4c28.5,150.5,21.1,259.4-111.4,325.4
	c-19.7,9.9-17.3,85.1-8.6,126.7c21.9,104.7,32.7,199.8-83.5,259.9c-19.2,9.9-42.7,39.5-41.1,57.7
	c20.7,215.7-176.4,286.4-284.7,407.3c-101.8,113.6-254.6,180-279.2,356.6c-3,22-54,57.9-75.8,53.5c-149.7-30.6-123,81.4-148.9,163.3
	c-29.8,94.1-77.8,183.1-123.5,271.3c-23.8,46-70.7,81.6-88.2,128.9c-84.2,228.2-158.8,459.9-244.7,687.5
	c-18.8,49.9-65.9,91.6-106.8,129.8c-60.4,56.3-131.7,101.3-189.6,159.7c-73.6,74.4-137.1,158.6-207.4,236.4
	c-78.9,87.3-181.5,161.1-234.5,261.6c-47.4,90-93.1,144-192.8,161.8c-66.3,11.8-182,38-184.7,66.5
	c-15.8,165.9-169.5,153.1-256,222.6c-179.4,144.5-188.2,260.1-94.9,480.4c37.2,87.9,123.7,205-18.2,324.3
	c-86.6,72.8-144.3,139.1-269.8,170.7c-201.8,50.7-403.3,144-511.2,354c-16.6,32.3-65.1,48.2-98.8,71.7l914-1652.4
	c70.2-66.9,141.1-133,210.3-200.8c133.5-130.7,261.9-266.9,400.2-392.3c165.3-150.2,341.1-289,506.6-439.1
	c24.7-22.3,24.4-79.6,24.2-120.7c-1.1-192.6,83.7-300.8,251.4-323.3c2.3-82.8-14.2-170.4,10.9-243.8
	c53.7-157.7,166.9-295.8,117.2-483.3c-9.8-37.1,44.9-99.4,81.9-138.8c56.4-60.2,127.7-106.4,184.8-166
	c99-103.3,187.4-217.1,289.1-317.4c76.8-75.8,167.5-137.5,256-208.7c-156.9-141.2-188.2-306-92.8-456.9s205.8-293,314.9-434.9
	c18.3-23.8,70.8-46,95-36.7c159.8,61.7,201.3-66.4,214.3-159c21.1-150,107.4-195,227.8-181.9C-664-2947.2-609.4-2993-575-3089
	l-6.2,2.1c54.7-8.9,109.3-18.2,164-26.5c43.8-6.6,87.8-12.1,131.6-18.1c-19.8,45-34.4,93.4-60.6,134.4
	c-43.4,67.7-94.3,130.7-160.2,220.4c281.9,2.4,324.9-35.8,322.8-230.3c-0.3-22.2,12.9-50.5,29.3-65.8
	C-79.9-3142.4-2.1-3208.3,74.6-3275.5z"/>
<path class="st0" d="M1935.4-838.7c119,147,234.4,103,346.2-113.6L1935.4-838.7z M-793.4-3755.7l700,387.2
	c-26.6,15-54.2,44.7-79.3,42.7c-217.2-17.2-338.6,51.6-408.4,239.1l6.2-2.1c-213.7-79.9-496.1-2.4-612.4,173.2
	c-21.2,32.1-8.3,90.3-32.6,116.2c-110.1,116.9-241.3,216-339.3,341.5c-102.5,131.2-272.1,222.9-271.9,423.9
	c0.1,107.9-13.5,215.7-20.9,322.6l138.9,129c-93.7,19.6-153.5,20.9-202.2,44.8c-77.7,38.2-160.2,79.8-218.5,141
	c-91.1,95.9-155,217.3-246.4,312.4c-78.3,81.5-156.3,310.3-114.4,412.6c48.8,119.3-19.2,306.6-122.6,337.3
	c-192.2,57.2-280.1,212.8-228.9,405.6c35,132-6.1,186.2-148.9,198.5c-14.4,1.2-33.5,4.3-41.5,14
	c-112.8,136.9-218.1,280.6-337.9,411.1c-71.3,77.6-164.8,134.9-248.2,201.4l2416.4-4368.4l63.9,148.1c70.4-79.2,203.2-169,190-224.9
	C-990.8-3713-906.5-3733.9-793.4-3755.7z M1763.9,965.4c-141.3-21.6-299,93-314.9,229.6C1561.3,1127.3,1741.1,1156,1763.9,965.4z
	 M1942.7,6900.1c78.5-134.9,138.5-286.6,242.1-397.9c63.9-68.6,194.2-75.4,294.7-109.7l-340.8,616L1942.7,6900.1z M4446.6,2836.3
	c-3.7-50.7-13.9-101.9-9.6-151.9c6.4-74.2,23-147.3,40.6-251.8l294.3-184.4L4446.6,2836.3z"/>
<path class="st0" d="M1935.4-838.7l346.2-113.6C2169.7-735.7,2054.4-691.7,1935.4-838.7z M1728.8,6430
	c-111.6,70.8-153,149.3-150.1,268.7l224,123.9c6.4-14.1,11.7-39.9,19.3-40.6c170.6-15.6,156.9-100.6,74-218.8
	c107.5-88.9,230-165.3,319.7-270.2c129.5-151.6,277-263.7,456.5-350c50.3-24.2,55.4-142.3,87.2-234.7l91.9,12.1l666-1204.1
	L3301,4276c21-100.4,149.5-154.2,433.1-151.6l433.7-784c-67.8,20.3-134.6,46.1-203.9,58.9c-39.9,7.4-83.5-6.1-135.1-11.1
	c-129.2,175.8-129.2,175.8-261.7,7.4c-32.3,51.9-64.4,98.5-91.1,148.1c-25.2,46.5-44.7,95.9-69.5,149.9
	c14.4,16.4,30.8,29.7,40.2,46.8c23.9,43.6,44.7,89,66.7,133.7c-43.9-12.9-87.9-36.6-131.8-36.3c-71.4,0.5-163.6-7.7-209.4,31.6
	c-83.9,72.1-135.8,180-210.2,265.1c-40.1,45.8-101.4,72.3-148.8,112.6c-54,45.9-100.8,100.3-155.1,145.8
	c-117.1,98.3-232.5,199.9-357.3,287.6c-97.1,68.1-207.2,117.4-311.4,175.2c-22.3,12.4-46.2,23.2-65.7,39.2
	c-112.6,92.3-226.9,182.9-334.6,280.7c-45.9,41.6-68.2,111.6-117,147c-74.1,53.8-141.8,110.2-254.2,114.4
	c-98.8,3.7-181.9,96-77,233.6c-53.2-2.9-94.6,7.5-110.5-8.1c-102.6-101-169.8-81.5-212.5,51.6c-226.7,2-236.7,273.2-415.4,334.4
	l504,278.8c-26.4-167.9,36.5-298.4,174.9-389.8c109.8-72.4,225.6-135.8,339.4-202c22.5-13.1,47.4-26.7,72.5-30
	c227-30.2,250.9-58.5,374.6-286.2c25.7-47.2,131.5-50.9,188.4-70.6l-33.1,323.3c-164.5,169.1-425.5,195.6-669.2,266.3
	c-107.2,31.1-212.6,74.4-175.9,230.1c6.7,28.2-45.4,70.3-48.1,74.2l0.5,208.6l252,139.4c151.9-177.1,231.4-429.9,503.2-481.3
	c19.2-3.6,39.5-1.4,95.5,33.9C1898.6,6240.9,1832.2,6364.5,1728.8,6430L1728.8,6430z M2262.1,5373.8c0-48.5,14.6-100.3,2.5-144.9
	c-47.6-174.5-20.6-204.3,158.5-170.9l-13.6,142.9l178.4-2.9c23.5-89.9,21.7-160.6,56.1-196.3c51.3-53.2,124.3-91.9,194.9-118.8
	c123-46.9,200.1-111.6,174.1-258.3c-4.6-26,24.9-75.3,50.4-86.2c93.7-39.6,192.6-67.8,306.2-105.8
	c-111.9,247.1-329.6,394.9-469.9,591.3c-164.7,230.6-439.3,284.2-575.2,518l-57.6-24.3C2265.1,5469.6,2262.2,5421.8,2262.1,5373.8
	L2262.1,5373.8z M-3815.4,3496.5c-14.6-14.9-4.9-82,15.3-98.4c252.7-206.4,509.3-407.9,794-633.8c30.4-67.3,65.5-190.9,137.8-286.3
	c36-47.5,146.6-70.9,212-55.8c92.6,21.5,128.2,5.6,145.8-82.4c7-35.2,18.4-88.3,42.3-98.3c126.2-52.6,144.3-129.4,48-238
	c53.1-21.7,84.8-41.6,118.9-47.4c137-23.2,229.7-63.1,269.4-230.8c28.6-120.6,151.8-224.8,247.9-321.5
	c78-78.6,115.5-144.7,88.2-263.9c-67.4-293.7,45.8-494.3,340.8-658.4c45-25,86.5-57.3,126.1-90.6c41.3-35,78.2-75.2,116.8-113.3
	c47.8,49.9,96.9,98.6,142.8,150.2c16.4,18.2,24.7,43.8,57.2,103.8l220.6-317.5L-796,156.4c40.9-90.4,82.1-166.4,205.7-80.8
	c34,23.4,91.6,9.5,133.7,25.4c50.7,18.9,96.3,51.1,144.1,77.6l-13.6,38.7l-270.5,29.4l70.2,326.2
	c137.8-67.3,272.7-131.6,405.6-199.6c20.5-10.5,47.3-39.6,45.6-57.7C-104.4,3.4,76.3-191.1,298-364.8c18.6-14.6,41.3-44,38.4-62.9
	c-21.9-143.6,82.6-162,179.9-191.1c104.4-31.2,193-72,187.6-209.7c-1.5-38.2,38.2-91.5,74-115.1c125.5-82.6,251.9-167.8,388.5-228.5
	c167.8-74.5,342-147.3,521-180.1c174.3-31.9,261.5-95.5,223.6-271.9c16.9-12.6,30.4-25.4,32.5-23.8c164.4,129,329.2-0.1,493.5,0.4
	c143,0.4,150.3-123,185.8-218.6l-532-294.3c-61,70-117.8,144.2-183.7,209.2c-123.1,121.4-248.7,240.5-378.8,354.2
	c-55.5,48.4-125.1,80.4-221.1,140.3c9.5-182.4,46-271.7,194.4-265.9c20.3,0.8,56.4-21.2,60.1-38.1c52.8-245.4,321-273.9,445.2-446.1
	l-252-139.4c-102.8,103.1-192.5,226.8-312.4,302.6c-110.5,69.9-203.5,204.5-369.5,165.3c-18.2-4.3-55,31.3-69.5,56.4
	c-104.3,180.3-203.6,363.4-307.5,543.9c-17.4,30.2-47,54.4-74.3,77.4c-58.9,49.7-119.9,96.6-188.2,151.2
	C201.2-1113,60-915.9,43.4-629.7C39.2-557.2-47-475.6-115-424c-93.4,70.7-204.2,119.3-310.2,172c-36.2,18-80.5,19.5-162.7,38
	c148.8-144.4,256.7-259.7,377.4-359.5c36.2-30,108-16.7,191.5-26.6l-117.7-92.5c2-20.2-1.3-35.3,4.4-40
	c112-94.4,185.2-201.7,210.9-356.5c29.6-179,78.4-191.4,263.2-144.5c23.4,6,64.9,9.8,72.6-2C524.7-1405.3,772.7-1464.3,772-1733
	c-0.3-114.1,111.6-229.2,175.5-342.1c7.7-14,38.7-27,53.7-22.7c203.2,59.4,324.5-56.7,438.7-196.2c43.3-52.9,97.4-97,146.6-145.1
	l-308-170.4c-52.9-3.5-106.6-3.8-159-11.9c-45.2-6.9-89.9-35.5-133.3-32.6c-185.6,12.3-238.6,82.2-214.1,266.7
	c26.7,201.4-15.8,271.8-185.2,303.5c51.6-86.2-66.8-167.9,12.2-281.2c82-117.7,77.8-295.5,109.4-438.1l206-7.9l-392-216.8
	c-23.8,34.7-47.7,69.2-71,104.2c-32.3,48.4-93.8,99.2-90.7,145.4c11.9,173.8-24.4,282.1-224.4,314c-86.6,13.8-56.7,144.9,82.8,266
	L33.9-2051.4l-26.6-21.4l27.4-121l-168.2-3c25.8-135.1-7.4-176.2-144.8-122c-82.6,32.6-185.2,14.3-278.7,19.9
	c-67.2,4-134.4,9.7-164,46.1c-100,208.3-187,424.3-304.8,622.2c-70.2,118-175.9,208.5-143.6,368.9c4.5,22.5-96.8,99.8-137.8,92.1
	c-151.8-28.6-207.2,54-232.2,173c-49.3,234.5-261.2,353.8-376.6,542.3c-80.8,131.9-215.1,222.3-212.7,408.7
	c1.5,104.8-54.5,221.3-113.9,313.3c-122.4,189.4-260,369.5-400,546.7c-112.3,142.2-228.6,283.6-359.5,408.2
	c-97.8,93.1-224.5,155.3-332.7,238.5c-48.9,37.7-86.5,91.2-125.4,140.6c-49.1,62.4-83.9,129.4-188.3,69.6
	c-67.5-38.9-225.4,110-203,203.1c25.5,105.6,109.1,197.9,131.7,303.6c22,103.2-0.1,216.1-5.9,324.6c-0.6,10.1-24,19.2-37,28.4
	c-209.8,148.7-227.9,273.7-68.4,488.7c-169.4,117-198.5,409.7-512.9,357c75.3-71,140.1-162.4,228.5-207.8
	c107.6-55.2,137.5-102.2,64.2-207.6c-52.8-75.9-94.2-194.3-163.4-213.8c-61.3-17.4-149.8,86.3-233.5,116.7
	c-104.1,37.8-171.3,87.8-190.6,206.6c-7.9,47.3-72.5,85.4-111.3,127.7l896.1,495.7C-3805.3,3635.7-3727.6,3586-3815.4,3496.5
	L-3815.4,3496.5z M581-2077.9l-62.8,374.7C356.3-1915.6,395.8-2059,581-2077.9L581-2077.9z M-3521.7,2347.5
	c-10.4-34.2,26.9-100.7,61.6-127.2c70.3-53.6,163.1-78.9,229.6-136c97.4-83.5,175.2-189.5,270.1-276.4
	c64.9-59.5,148.4-98.5,216.8-154.8c61.6-50.7,176.2-91.5,50.9-198.5l276.1-157.3c81.4-46.4,151.6-89.9,109.8-211.5
	c-9.5-28.1,70.3-113.9,122.5-130.6c130.3-41.5,165-127.5,177-249.5c5.1-52,51.2-99.7,87-164.3l-87.6-82.4c29-41.9,47.8-102,84-115.5
	c231.2-86.3,275.8-302.1,370.2-490c55-109.5,154.3-198.1,241.8-288.4c18.5-19,76.7-14,109.5-1.5c58.4,22.3,111.4,58.8,163.7,87.8
	c125.3-226.5,244.9-440.5,361.4-656.3c13.8-25.7,18.2-62.2,13.2-91.4c-30.7-179.8,55.7-281.5,217-335.1
	c-63.5-184.4-62.5-168.6,133.7-179.8c168.5-9.7,333.6-71.4,502.3-88.2c54.3-5.4,115.5,58.3,173.5,90.4l-17.1,82
	c-103.4,7.8-211,37.4-309.4,18.7c-203.8-38.6-452.1,88.2-492.1,281.4c-7.3,35.1,23.9,78.2,51.5,159.4
	c-24,21.3-95.3,63.1-132.4,125.3c-25.2,42.3-2.5,113.2-0.5,202.7c-197.9,76.8-251.2,310.5-365,497.5
	C-1017.7-52.9-1102-47.7-1234-254.2c-51.9,56.8-102,106.3-146,160.8c-111.7,138.2-221,278.3-330.6,418.2
	c-26,33.2-55.3,65.9-72.3,103.7c-41.3,92-78.1,186.1-113.4,280.6c-55.6,149-108.5,299-127.2,456.2l-201,160.8
	c-137.3-46.3-201.2,38.2-254.9,207.5c-35.5,111.6-166.1,193.7-256.5,286.8c-28.9,29.7-65.3,52-98.2,77.8
	c36.5,33.9,69.6,73.5,111.2,99.3c27.2,16.9,66.9,13.5,122.2,22.8c-107.5,100.9-199.1,57.1-292.3,25.7
	c-158.1-53.6-458.9,185-443.1,351.2c1.8,18.9,14.7,40.7,29.1,53.8c130.6,119.3,21.8,163.1-71.6,229.2
	C-3433.7,2555.9-3488.7,2455-3521.7,2347.5L-3521.7,2347.5z"/>
<path class="st0" d="M-365.6,2417.7c-37.8,1.5-83.3,38.8-109.2,72.2c-69.7,89.8-147.7,136.1-260.7,86c-4.9-2.2-11.1-6.8-14.7-5.4
	c-43.1,17.1-124.4,39.5-122.9,52.1c20.6,175.2-385.2,140.3-185.5,402.1c-38,32.2-92.3,57.8-111.9,99.6
	c-33.1,70.6-74.2,159-57.5,226.4c27.3,110,0.4,176.1-71.7,255c-152.7,167-285.6,352.3-441.9,515.3c-59,61.5-160.4,82.4-252.7,126.8
	c7.8,37.3,8.5,81,26.1,116.3c44,88.3,2.5,123.6-74.8,153.8c-55.9,21.9-106,59.4-158.4,90l420,232.3c7-19.8,10.7-54.8,21.7-57.3
	c188.5-42.3,182.9-250,301.1-351.9c20-17.2,27-56.3,29.3-86c14.6-183.9,68-230.3,241-236.2c61-2.1,123.3-37.4,180.1-66.9
	c49.4-25.7,91.8-64.7,129.4-92.1l125,125c28.3-44.4,50.3-95,86.4-131.8c60.3-61.6,123.6-124.4,196.5-168.7
	c119.6-72.5,247.8-130.7,372.8-194.2c23.6-12,48.7-27.4,73.7-28.7c88.3-4.8,140.3-142.9,256.8-70.2c8,5,106.8-98.3,130.7-163.2
	c81.9-222,171.5-285.9,399.9-260.9c28,3.1,79.2-2.7,83.4-15.7c52.3-167.3,226.4-161.4,336.8-244.2c37.5-28.1,70.1-62.6,105-94.1
	c73.1-66,147.7-130.3,218.6-198.4c49.7-47.8,91.6-103.8,141.8-151c79.1-74.6,167.4-140.1,241.6-219c41-43.6,87.6-107.3,86.2-160.8
	c-4.9-186.5,79.6-281.5,260.6-266.6c163.9,13.4,315.1-11.7,428.4-147c9.8-11.7,24.2-20.7,38.1-27.6
	c262.6-130.5,269.2-141.1,250.1-410.2c241.5-116,368.5-338.3,506.2-549.6c18.3-28.1,23.6-70.9,20.4-105.6
	c-10.5-112.2-13.2-111.9,124.8-159l-45.2,243.8c169.4-50.1,287.1-215.7,293.7-398.8c297.1-130.5,311.1-157,185.4-401.7
	c76.2-45.7,156.6-89.7,232.4-140.5c111.1-74.2,217.1-155.8,328.6-229.1c45.9-30.2,100.4-47.5,150.9-70.6l-588-325.3
	c105.9,277.7-238.8,670.1-459.6,714.4c-169.7,34.1-195.7,75.5-152.3,272.3c-79.5,30.8-159,72.6-243.6,91.8
	c-132.3,30.2-189.4,108-253.8,227.8c-58.7,108.6-213.1,165.5-325.3,245.2l-30.2-31.6l45-153.2c-204.8-59.6-236.6-29-342.9,136.4
	c-83.6,130.2-194.7,262-325.7,337.3c-140.3,80.7-186.1,208.2-267.1,321.8c-34.4,48.2-91,86.1-145.1,113.5
	c-152.8,77.1-316.2,135.6-460.7,225.2c-42.9,26.5-37.4,131.8-89.4,200.4l-56.4-147.2C1024.6,1722,754,1614.5,783.9,1843
	c2,15.6-42.3,37.4-65.4,55.9c-53.2,42.6-126.5,74.4-156.2,129.6c-77.8,144.4-208.9,137.3-368.4,161.9
	c115.9-93.8,213.5-160.4,295.4-242.7c73.5-73.9,124-170.4,195.6-246.7c51.5-55,114.9-107.7,183.6-135.5
	c111.2-45.1,169.6-121.7,245.9-213.2c160.6-192.4,234.3-491.2,546.1-533.8c32.4-4.5,60.6-39.9,101.1-68.1l51.7,107.8
	c20.7-14.7,38.1-20.6,44.2-32.4c135.8-260.3,379.4-406,607-567.6c31.6-22.5,80.8-36.2,118.8-31.1c183.2,24.6,318.3-23.8,433.8-184.4
	c41.6-57.8,146.2-167.7,278.8-92.1c14.7,8.4,107.2-68,119.2-116.3c42.8-170.8,144.3-249.8,315.7-260.1c34-2,68.8-36.7,98-62.3
	c48.9-42.9,96.8-87.7,138.7-137.2c31-36.4,62.2-78.5,75.1-123.4c27.7-97.1,43.6-197.4,64.3-296.4l-504-278.8
	c26.1,37.3,44.8,96,79.8,108.1c197,69.5,200.7,186.3,44.2,390.1c-144.4,188.3-353.2,234.3-563.4,273.5
	c-132.9,24.7-213,78.8-265,211.3c-32.7,83.3-119.4,154-197.1,208.7C2607-65.8,2501.2-3.3,2391,23.9c-64.5,16-146.9-40.1-221-63.9
	l-4.1-58.8l-541.7,424.9c-113.4,45.2-243.6,96.1-372.7,149.8c-17.8,7.4-41.3,28.3-42.5,44.4C1188.3,807,941.1,901,759.9,1049.6
	c-114.7,94-199,197.8-220.2,354.1c-26,191.3-132.2,277.9-324.2,325.2c-62.9,15.5-115.5,71.5-173.7,107.4
	c-55.8,34.2-109.9,86.6-170,95.2c-134.2,19.4-271.8,20.4-408.1,19.5c-30.4-0.2-60.6-39.2-118.7-79.6c-40,40-105.1,84.7-142.3,146.4
	c-89.5,148.3-200.8,250.3-379,285.1c-50.1,9.8-130.9,113.5-119.3,142.8c45.3,113.6-33.3,152.1-96.1,184.2
	c-193.2,98.4-166.2,273.7-170.1,440.2c-0.9,40,18.6,94.8-0.8,117.8C-1742,3401-1867.9,3662.3-2135,3798
	c-109.4,55.5-196.5,153.8-296.8,228.6c-117.5,87.6-238.2,170.9-357.6,256l503.9,278.7l135.9-296.1l-16.7-3.8
	c63.3-72.2,123.9-147.2,191-215.5c39.5-40.2,84.6-84.2,135.8-102.2c271.2-95.6,335.5-354.9,446-569.7
	c104.8-203.7,199.2-417.3,199.3-657.7c0-32.5,42-69.9,72.1-96.4c65.2-57.4,135.3-109.1,217.5-174.2
	c247.6,30.3,470.1-64.1,657.5-263.1c28.7-30.5,93.8-26.8,151.3-41.2C-113.3,2355-179,2410.4-365.6,2417.7L-365.6,2417.7z
	 M2393.8,924.6c172.7-87.9,351.5-164.9,531.8-236.1c40.2-15.9,97.4,11.5,169.8,22.5c-4.8,19.1-9.1,81.8-22.9,84
	c-115.7,18.3-183.1,157.1-337.3,102.5c-122.4-43.2-129.8,73.3-100.9,161.6c42.1,128.4-17.9,192.3-111,237.7l-33.6-193.5
	l-234.3,106.7C2227.9,1085.2,2278.4,983.3,2393.8,924.6z M550.8,2472.2c115,61.3,187.4,8.2,268.6-59.9
	c59.8-50.3,129.8-88.6,206.1-139.5l49,112.9l45.7,15.8c39.8-89.9,75.2-182.1,120.6-269c46.3-88.4,101.5-172.4,155.1-256.6
	c12.9-20.3,44.8-31.4,52.2-52.5c92.5-257.4,230.8-337.8,497.8-273.8c-211.7,232.8-576.7,320.8-605.2,761.7
	c-131.2,67.2-311.7,155.3-487.7,251.6c-71.4,39-129.2,102.9-200.7,141.8c-36.4,19.8-93.3,22.5-134.1,10.3
	c-157.5-47.1-232.3-6.8-267.6,154.5c-18.4,83.9-38.8,167.3-58.3,251.1l55.3,32.8l-211,136.9l45.3-448l-49.7-33
	c-80.2,67.6-162.3,133.3-240,203.6c-54.1,49-94,119-155,153.8c-104.6,59.7-111.4,108.8,17.2,180.5L-555.1,3484l28.7-167.5
	c-19-2.2-41.2-11.2-48.2-4.5c-100.7,96.3-221.9,181-291.7,296.6c-62.4,103.3-123.1,146.3-234.1,137.1
	c-24.3-182.3,40.8-274.6,173.6-356c149-91.3,269.8-229,418.6-320.8c150.4-92.8,282.2-183.8,358.6-355.9
	c20.7-46.6,160.7-33.9,241.3-61.9c106.2-36.9,207.4-87.9,311.6-130.9C452.5,2500.1,519.1,2455.3,550.8,2472.2L550.8,2472.2z"/>
<path class="st0" d="M-857.4,5351.2l532,294.3c11.8-38.3,11.4-93.6,37.3-112.2c162.8-116.8,330.7-226.6,498.4-336.3
	c101.4-66.3,203.1-132.7,308.7-191.7c285.8-159.6,582.8-291.9,908.2-349.2c10.5-1.8,24.2-0.3,30.9-6.3
	c164.7-148.6,330.3-296.3,492-448c66.6-62.6,123.7-135.3,187.2-201.5c57.3-59.7,118.7-115.4,175.9-175.1
	c119.2-124.7,236.3-251.5,356.2-375.4c20.8-21.4,50.5-36.1,78.3-48.1c102-44.5,148.8-110.4,75.6-227.1
	c179.8-19.4,166.7-111.3,88.3-228.6c243.1-184.7,578.1-192.5,807.1-442l-168.3-29.6c15.6-28.2,23.4-66.5,44.9-77.1
	c114.5-56.5,235.2-100.9,347.6-161c36.9-19.7,62-70.8,81.1-112.7c55.3-121.5,130.5-215.5,266.2-255.5c40-11.8,74.6-53.2,103.7-87.8
	c52-61.8,108.9-123.4,143-194.9c28.7-60.1,28-134.2,43.3-218.8c115.1-13.5,134.8-102.6,113.3-221.4c-7-38.9,1.5-84.8,16.1-122.5
	c28-72.2,65.4-140.8,108.5-230.8c47.7-24.3,124.3-73.6,208-101.5c44.2-14.8,101.1,13.6,151.8,11.5c41.4-1.8,82.1-19.7,123.2-30.3
	c-15.8-39.4-25.8-82.6-48.8-117.1c-28.3-42.5-67.5-77.7-83.4-95.4c141-200.9,269.1-387.3,402.7-569.8
	c22.5-31.1,68.3-45.1,103.3-66.9l-308-170.4c-30.1,121.9-41.2,253.3-96.6,362.6c-40.3,79.6-131.5,142.1-212.8,190.1
	c-138,81.7-347.8,62.4-407.2,249.9c-44.9,141.8-139.7,155.4-254.1,161.8c-15.2,0.7-30.8-3.3-43.4-4.7
	c-134,179.6-254.1,366.8-402.5,528.5c-77.6,84.6-200.3,162.1-310.5,174.6c-183.4,20.8-220.8,193.6-345.2,269.6
	c-20.9,12.9-2.3,90.6-2.1,118.9c-100.9,116.4-191.7,236.8-299.2,339.9c-98.1,94-205.7,185.1-324.6,248
	c-136.7,72.2-196.1,174.4-212.2,318.5c-2.4,20.8-32.8,40-52.7,57.1c-74,63.5-148.9,125.9-223.5,188.7l-41.7-22.3
	c56.7-128,113.4-255.9,170.2-383.9c21.4-48,31.8-109.1,67.8-140.8c64.1-56.3,142.9-96.6,217.6-140.2
	c56.1-32.7,130.4-46.5,170.8-91.7c191-213.6,384.3-426.8,554.8-656.4c137.7-185.5,330.5-261.9,528.4-342.3
	c18.7-7.6,41.4-22.6,48.3-39.8c73.7-183.4,253.2-278.7,361.4-435.5c65-94.1,177.9-155.2,282.1-241.7l-42.4-64.6L4750.5,67L5121,83
	c97.6-155.2-10.2-358,161.9-477.6l-392-216.8c-101.8,48.5-297.5,32.4-155.1,230.7l-201.7,185.5l-62.7-87.2
	c-70.6,40.3-140.4,77.2-206.9,119.4c-28.2,17.9-72.7,49.4-70.4,70.5c28,265.8-241.3,347.6-327.8,540.3
	c-24.5,54.6-35.9,115.8-64.8,167.6c-19.5,35.3-67.7,89.4-88.5,83.6c-168.8-47.3-244.6,101.7-288.5,185.6
	c-68,129.7-174.5,190.3-275.2,271.3c-79.9,64.3-150.7,137.5-63.7,247.4c-64.3,54.9-121.3,120.9-192.8,161.1
	c-173.2,97.4-349,192.4-531.8,269.5c-107.4,45.4-197.2,90.1-250.1,201.9c-33.1,70.2-96.8,125.3-138.4,192.4
	c-56.1,90.3-104.2,185.6-169.6,303.9c-192.9-5.1-354.3,123.4-499.8,279c-21,23.3-36,51.4-43.8,81.8
	c-37,144.8-113.9,216.1-275.9,191.8c-116.9-17.5-447.1,228.6-494.9,334.2c-20.5,45.3-68.5,95.1-114.3,109.3
	c-222,68.4-429.3,151.1-629.7,281.4c-129.2,83.9-231.3,136.5-276,297.3c-26.9,96.7-139.4,130.3-253.6,83.1
	c-164.8-68.1-370.3,7.7-457.3,162.4c-54.8,97.4-107.6,196-159.3,295.1c-6.4,12.3-0.8,30.9-0.5,58.7l242.6-52.6l-191,307.1
	l-132.2-183.5l-158.7,140l532,294.3c185.2-90.3,312.8-204.9,298-444.9c-5.6-91.4,95.6-189.4,154.6-296.1
	c68,49.8,185.7,17.7,181.5,154.3c-0.3,11.7,72.6,43.6,102.5,35c109.7-31.5,201.3-14.1,298.7,46.7c112.3,70.1,299.8-59.8,332.1-211.2
	c26.2-123.4,52.8-249.7,102.3-364.4c60-138.8,143.9-267.3,219-399.4c12.5-22,37.5-58.7,48.9-56c160.5,38.2,216.5-128,334.3-166.3
	c122-39.6,249.3-62.3,373.2-96.9c134.4-37.6,270.4-72.4,399.7-123.7c75.7-30,103.2-254.5,52.8-335.1c-21-33.5-45.2-65.1-67.9-97.6
	l41.3-40.7c39.7,39.8,101.4,73.5,114.5,120.7c25.9,93.7,44.1,120.4,159.9,102.2c176.8-27.9,362-1.5,543.9,1.9l16.7,52.5
	c-86,55.4-179.2,102.6-255.1,169.4c-41.4,36.5-68.5,104.1-75.9,161.1c-21,161.9-91.2,272.2-252,336c52.6-84.2,109.7-146.8,132.3-220
	c20.5-66.4,3.7-144.6,3.3-245l76.8-29c-124.5-136.1-194.7-143.3-298.8-21.9c-64.7,75.7-106.1,171.9-173.5,244.5
	c-46.2,49.8-116.7,80.3-180.8,109.8c-123.4,56.8-250,106.8-402.4,171l-44.6-180.5c-149.1-23.8-392.6,147.8-417.5,310.6
	c-6.9,44.9-13.6,117.3-39.6,127.3c-136.9,52.8-164.6,184.4-208.6,292c-26.6,64.5,14.9,156.9,27.3,248.5l-133.1-2.4
	c-2,56.2,1.3,108.4-7.6,158.5c-5.5,30.7-24,77.6-46.5,84c-181.4,52.2-365,96.6-560.3,146.5l40.8-172.9l-218.2,22.6l-73-106
	c-157.1,130.6-239.9,295.8-295.5,473.7c-22.6,72.6,117.2,126.9,209.6,77c44.7-24.2,80-65.8,145.2-88.2l-93.9,237.3L-857.4,5351.2z
	 M2977.2,2430.6c26.9-15.6,64.7-17.7,84.9-38.4c132.1-133.6,261.8-269.7,389.8-407.3c27.3-29.3,57.6-65.7,64.3-102.7
	c24.5-135.8,114-182.9,235.1-225.5c105.9-37.2,194.9-121.8,292.4-183.8c41.6-26.4,85.8-48.5,128.9-72.9l33.1,46.1
	c-113.9,132.5-232.9,261.2-339.7,399.2c-52.5,67.8-153.3-0.4-199.4,109.1c-68.8,163.3-294.3,219.7-322,426.8
	c-3.6,27-54.4,70.2-80.4,68.2c-245.6-18.7-380.2,193.6-578.7,270.1c-13.3,5.1-28.5,5.3-56.3,10
	C2693.6,2556.4,2846.9,2506.4,2977.2,2430.6L2977.2,2430.6z M-33.2,4281.6c-49,21.3-97,56-147.3,59.6c-39.2,3-81.4-32.3-120.1-49.6
	l126.3-292.1l-42.6-28.1l309.1-53.6C1.1,4032.6-118.3,4119-33.2,4281.6L-33.2,4281.6z M955.1,4267.6c10.8-0.3,19.9-55,30.5-84.1
	c15.4-42.5,31.5-84.8,47.4-127l50.4,10.4l41.9,174c253.9-50.8,369.9-313.4,614.2-346c-269.8,288.1-545.8,564.2-966.4,624.4
	C822.9,4427.5,775,4272.2,955.1,4267.6L955.1,4267.6z"/>
</svg>
