<svg version="1.1" id="Layer_1" x="0" y="0" viewBox="0 0 2000 2000" xml:space="preserve" style="enable-background:new 0 0 2000 2000" xmlns="http://www.w3.org/2000/svg"><defs id="defs44"><clipPath clipPathUnits="userSpaceOnUse" id="clipPath905"><path style="display:inline;opacity:1;fill:none;stroke:#000;stroke-width:3.1;stroke-linecap:butt;stroke-linejoin:miter;stroke-miterlimit:4;stroke-dasharray:none;stroke-opacity:1" d="M40.37 35.324c63.078 10.092 370.9-32.8 804.878 10.092 433.978 42.894 550.042 88.31 736.754 50.463 186.711-37.847 388.561-50.463 388.561-50.463s0 232.128 15.14 375.946c15.138 143.819-55.51 431.455-50.463 643.398 5.046 211.943 85.786 524.811 12.615 656.014-73.17 131.202 30.278 249.79 30.278 249.79s-131.203 17.661-307.822 0c-176.619-17.663-562.658-22.709-714.045-2.524-151.388 20.185-232.128-7.57-476.872-22.708-244.743-15.139-408.746-17.662-408.746-17.662s5.046 55.51 15.138-98.402c10.093-153.91 37.847-244.743 2.523-449.117-35.323-204.373-22.708-227.081-37.846-426.408-15.14-199.328 70.647-456.687 45.416-595.459C70.648 219.512 40.37 35.324 40.37 35.324Z" id="path907"/></clipPath></defs><style type="text/css" id="style29">.s{opacity:.75;fill:#639}</style><g id="layer3" style="display:inline;opacity:1"><path id="rect922" style="opacity:1;fill:#111;fill-opacity:1;stroke-width:3.1;stroke-miterlimit:4;stroke-dasharray:none" d="M0 0v2000h2000V0H0z"/></g><g id="layer4" style="display:inline;opacity:1;mix-blend-mode:normal"><g id="g861"><path id="path857" class="s" d="M180.377 0C123.068 75.468 63.187 148.742 0 219.19v455.962c85.89-106.079 170.74-212.712 257.426-316.33C367.917 212.003 506.896 99.932 656.286 0h-475.91zm567.686 0C474.776 192.696 269.116 488.304 104.61 807.922 74.054 865.287 38.144 915.61 0 962.998v221.147C628.3 795.554 1345.177 433.607 2000 30.777V0H748.062z"/><path id="path859" class="s" d="M2000 136.7c-51.94 11.96-104.073 22.875-156.488 31.552C1078.902 477.76 728.425 1343.197 0 1701.855V2000h1193.574c395.82-353.674 739.415-721.212 553.852-453.176-97.6 170.47-223.276 317.235-361.444 453.176h457.483c50.713-44.824 102.718-88.172 156.535-129.445V890.307c-454.49 416.204-992.382 725.71-1508.357 1057.875 446.66-459.502 950.385-859.617 1401.584-1314.536 35.053-28.765 70.683-56.659 106.773-83.847v-413.1z"/></g></g><g id="layer1" style="display:inline"><g id="g53" transform="translate(268.2 -377.9)" style="display:inline;opacity:1;mix-blend-mode:normal"><path id="path37" style="opacity:1" class="s" d="M-153.641 377.9c-22.673 21.274-45.174 42.694-68.838 63.111-22.117 17.173-26.672 21.88-45.721 36.914v514.54C-90.03 794.768 72.854 581.168 241.904 377.9h-395.545zm499.79 0C142.29 583.878-58.133 818.917-268.2 1047.006v500.714C291.545 1260.837 897.35 971.164 1299.66 377.9H346.15z"/><path id="path39" style="opacity:1" class="s" d="M1476.388 377.9C889.178 808.782 530.87 1547.025-200.251 1785.328c-22.511 6.856-45.306 14.646-67.949 21.779V2377.9h988.303c354.346-231.787 839.229-725.544 1011.697-875.283v-384.254c-390.653 307.308-822.659 561.05-1240.158 829.818C875.22 1510.676 1292.016 1137.583 1731.8 810.904V377.9h-255.412zM1731.8 1571.888c-193.25 323.788-485.62 563.791-772.945 806.012h543.37c69.453-99.079 146.35-189.689 229.575-273.082v-532.93z"/></g></g></svg>